<svg width="38" height="34" viewBox="0 0 38 34" fill="none" xmlns="http://www.w3.org/2000/svg">
<path d="M1.79244 21.6793C3.37735 23.4906 3.60376 23.717 10.0943 30.9623C10.3962 31.2642 10.6981 31.6416 11 31.9435C13.2641 33.9057 16.7358 33.6038 18.6981 31.3397L19.5283 30.3586C23.9811 24.7736 30.3207 16.9246 35 10.8114L36.5094 8.84912C37.0377 8.16987 37.3396 7.33968 37.4906 6.50949C37.717 4.77365 36.9622 3.0378 35.6038 2.05666C36.8868 3.11327 37.4151 4.92459 37.1887 6.50949C37.0377 7.26421 36.6604 8.01893 36.2075 8.6227L34.5472 10.5095C29.566 16.3208 23.0755 24.0944 18.4717 29.5284L17.717 30.434C16.2075 32.0944 13.6415 32.2453 11.9811 30.8114C11.6792 30.585 11.4528 30.2831 11.2264 29.9812C-1.00001 16.2453 6.01886 24.1699 2.92452 20.6982C1.41508 18.9623 1.6415 16.3963 3.2264 15.0378C4.81131 13.6038 7.45282 13.6038 8.96225 15.2642C9.03772 15.3397 14.3962 21.0755 14.0943 20.6982C14.3207 21.0001 14.7736 20.9246 15 20.6227C16.434 18.8114 9.79244 27.1887 29.0377 2.81138C29.7924 1.83025 30.9245 1.22648 32.1321 1.07553C33.3396 0.924589 34.6226 1.22648 35.6792 1.98119C34.6981 1.151 33.4151 0.698173 32.1321 0.773645C30.849 0.849117 29.566 1.52836 28.7358 2.50949C9.26414 25.5284 15.9811 17.6038 14.5472 19.2642C14.4717 19.1887 9.71697 13.9057 10.0189 14.2076C8.81131 12.8491 6.92452 12.0944 4.81131 12.5472C3.90565 12.7736 2.99999 13.2265 2.32074 13.8302C0.056591 15.7925 -0.245296 19.3397 1.79244 21.6793Z" fill="#FF0141"/>
</svg>
