<svg width="98" height="90" viewBox="0 0 98 90" fill="none" xmlns="http://www.w3.org/2000/svg">
<g clip-path="url(#clip0_20_1702)">
<path d="M40.6413 20.2514C41.3386 18.8063 41.2542 16.4785 43.3796 14.7129C43.8463 16.0961 42.1145 18.5702 40.6413 20.2514Z" fill="url(#paint0_linear_20_1702)"/>
<path d="M45.7637 9.61251C51.9488 -5.05184 49.5254 -1.14397 55.8848 9.37073C61.0747 18.2885 64.6283 28.1735 66.3995 28.2803C98.4497 33.3409 103.263 30.5857 93.4847 39.0537C87.1759 45.638 73.1132 56.237 74.4177 58.0982C76.2788 69.5688 77.8701 78.7453 79.6694 88.3434C80.8671 91.7171 48.8619 73.2011 50.3295 75.0342C16.2101 92.7124 18.8922 96.4797 22.0466 76.7829C23.0306 70.6596 24.605 62.2872 25.4203 57.1817C4.99256 35.9442 -2.02474 33.0035 6.64005 32.475C41.2823 28.1847 34.3944 30.6588 38.2966 25.1653C37.9536 26.8521 36.3848 30.4845 35.4852 29.9334C24.2395 31.997 16.5643 33.3071 7.04489 34.9209C37.4532 63.8054 28.6928 49.5403 24.1889 85.3521C52.393 71.593 48.1309 70.3953 54.6928 74.202L78.2131 87.2301C76.9086 77.109 74.2771 66.2513 73.1525 56.1639C97.6062 30.372 95.8969 36.0679 89.5712 34.5442C62.3848 30.0178 64.7633 33.1722 61.457 25.6095C45.8593 -6.54751 53.0959 1.41442 45.7637 9.61251Z" fill="url(#paint1_linear_20_1702)"/>
</g>
<defs>
<linearGradient id="paint0_linear_20_1702" x1="40.1665" y1="22.1437" x2="43.6159" y2="22.1163" gradientUnits="userSpaceOnUse">
<stop offset="0.32815" stop-color="#CE1660"/>
<stop offset="1" stop-color="#8538F9"/>
</linearGradient>
<linearGradient id="paint1_linear_20_1702" x1="-13.0215" y1="120.75" x2="103.335" y2="118.833" gradientUnits="userSpaceOnUse">
<stop offset="0.32815" stop-color="#CE1660"/>
<stop offset="1" stop-color="#8538F9"/>
</linearGradient>
<clipPath id="clip0_20_1702">
<rect width="98" height="90" fill="white"/>
</clipPath>
</defs>
</svg>
