<svg width="40" height="40" viewBox="0 0 40 40" fill="none" xmlns="http://www.w3.org/2000/svg">
<g clip-path="url(#clip0_23_1832)">
<path d="M35.1169 4.7793H4.89137C2.19325 4.7793 0 6.97255 0 9.67067V30.3286C0 33.0268 2.19325 35.22 4.89137 35.22H35.1086C37.8067 35.22 40 33.0268 40 30.3286V9.67894C40.0083 6.98083 37.815 4.7793 35.1169 4.7793ZM37.7736 30.3286C37.7736 31.7936 36.5818 32.9854 35.1169 32.9854H4.89137C3.42644 32.9854 2.23464 31.7936 2.23464 30.3286V9.67894C2.23464 8.21402 3.42644 7.02221 4.89137 7.02221H35.1086C36.5736 7.02221 37.7654 8.21402 37.7654 9.67894V30.3286H37.7736Z" fill="url(#paint0_linear_23_1832)"/>
<path d="M25.2266 19.7429L35.0093 10.9699C35.4645 10.5561 35.5059 9.85256 35.0921 9.38908C34.6783 8.93387 33.9748 8.89249 33.5113 9.30631L20.0207 21.4147L17.3888 19.0642C17.3805 19.056 17.3722 19.0477 17.3722 19.0394C17.3143 18.9815 17.2564 18.9318 17.1902 18.8821L6.48046 9.29804C6.01698 8.88421 5.31348 8.9256 4.89966 9.38908C4.48584 9.85256 4.52722 10.5561 4.9907 10.9699L14.8893 19.8174L5.03208 29.0456C4.58515 29.4677 4.56033 30.1712 4.98242 30.6264C5.20589 30.8581 5.50384 30.9823 5.80179 30.9823C6.07491 30.9823 6.34803 30.883 6.56322 30.6843L16.5694 21.3237L19.2841 23.7487C19.4993 23.939 19.7641 24.0301 20.029 24.0301C20.2938 24.0301 20.5669 23.9308 20.7739 23.7404L23.563 21.2409L33.5113 30.6926C33.7265 30.8995 34.0079 30.9988 34.281 30.9988C34.579 30.9988 34.8686 30.883 35.0921 30.6512C35.5142 30.2043 35.4976 29.4925 35.0507 29.0704L25.2266 19.7429Z" fill="url(#paint1_linear_23_1832)"/>
</g>
<defs>
<linearGradient id="paint0_linear_23_1832" x1="-6.74557" y1="45.6206" x2="42.237" y2="44.6162" gradientUnits="userSpaceOnUse">
<stop offset="0.32815" stop-color="#CE1660"/>
<stop offset="1" stop-color="#8538F9"/>
</linearGradient>
<linearGradient id="paint1_linear_23_1832" x1="-0.576951" y1="38.5108" x2="37.117" y2="37.6872" gradientUnits="userSpaceOnUse">
<stop offset="0.32815" stop-color="#CE1660"/>
<stop offset="1" stop-color="#8538F9"/>
</linearGradient>
<clipPath id="clip0_23_1832">
<rect width="40" height="40" fill="white"/>
</clipPath>
</defs>
</svg>
