<svg width="90" height="90" viewBox="0 0 90 90" fill="none" xmlns="http://www.w3.org/2000/svg">
<g clip-path="url(#clip0_20_1666)">
<path d="M21.5421 48.9377C19.3333 48.9377 17.5363 50.7346 17.5363 52.9433C17.5363 55.152 19.3333 56.9488 21.5421 56.9488C23.7508 56.9488 25.5477 55.152 25.5477 52.9433C25.5477 50.7346 23.7506 48.9377 21.5421 48.9377ZM21.5421 54.3073C20.7901 54.3073 20.1782 53.6954 20.1782 52.9436C20.1782 52.1918 20.7901 51.5799 21.5421 51.5799C22.2941 51.5799 22.9058 52.1918 22.9058 52.9436C22.9058 53.6954 22.294 54.3073 21.5421 54.3073Z" fill="#FF0141"/>
<path d="M57.7835 74.4106C57.6068 73.8658 57.0995 73.4976 56.5274 73.4976H48.6808L46.2561 66.0351C46.0814 65.4971 45.5655 65.1223 44.9998 65.1223C44.4341 65.1223 43.9184 65.4969 43.7435 66.0351L41.3188 73.4976H33.4724C32.9002 73.4976 32.3929 73.866 32.2161 74.4104C32.0393 74.9546 32.233 75.5511 32.696 75.8872L39.0438 80.4993L36.6191 87.9618C36.4498 88.4822 36.6277 89.0685 37.0577 89.4072C37.517 89.7691 38.1786 89.7823 38.6518 89.4385L44.9996 84.8263L51.3474 89.4385C51.8438 89.7992 52.5417 89.7646 53.0005 89.3576C53.3895 89.0126 53.5408 88.4564 53.38 87.9619L50.9553 80.4995L57.3031 75.8873C57.7666 75.5512 57.9603 74.9548 57.7835 74.4106ZM48.6265 78.9259C48.1635 79.2622 47.9698 79.8584 48.1466 80.4026L49.6116 84.9114L45.7761 82.1249C45.3183 81.7922 44.6809 81.7922 44.2234 82.1249L40.3878 84.9114L41.8528 80.4026C42.0296 79.8584 41.8359 79.262 41.3729 78.9259L37.5375 76.1394H42.2784C42.8505 76.1394 43.3578 75.771 43.5347 75.2266L44.9996 70.7178L46.4646 75.2266C46.6414 75.771 47.1487 76.1394 47.7209 76.1394H52.4617L48.6265 78.9259Z" fill="#FF0141"/>
<path d="M89.9351 74.4104C89.7583 73.866 89.251 73.4976 88.6788 73.4976H80.8324L78.4077 66.0351C78.233 65.4971 77.7171 65.1223 77.1514 65.1223C76.5857 65.1223 76.07 65.4969 75.8951 66.0351L73.4704 73.4976H65.624C65.0519 73.4976 64.5446 73.866 64.3677 74.4104C64.1909 74.9546 64.3846 75.5511 64.8476 75.8872L71.1954 80.4993L68.7707 87.9617C68.6014 88.4822 68.7793 89.0685 69.2093 89.4072C69.6686 89.7691 70.3302 89.7823 70.8034 89.4385L77.1512 84.8263L83.499 89.4385C83.9956 89.7992 84.6933 89.7646 85.1523 89.3576C85.5413 89.0126 85.6926 88.4564 85.5318 87.9619L83.1071 80.4995L89.4549 75.8873C89.9184 75.5511 90.1121 74.9546 89.9351 74.4104ZM80.7781 78.9261C80.3151 79.2623 80.1214 79.8586 80.2982 80.4028L81.763 84.9116L77.9278 82.1251C77.4647 81.7887 76.8378 81.7885 76.375 82.1251L72.5394 84.9116L74.0044 80.4028C74.1812 79.8586 73.9875 79.2622 73.5245 78.9261L69.6891 76.1396H74.4301C75.0023 76.1396 75.5096 75.7711 75.6864 75.2267L77.1514 70.718L78.6164 75.2267C78.7932 75.7711 79.3005 76.1396 79.8727 76.1396H84.6135L80.7781 78.9261Z" fill="#FF0141"/>
<path d="M25.6323 74.4106C25.4553 73.8658 24.948 73.4976 24.3758 73.4976H16.5295L14.1047 66.0351C13.9279 65.4908 13.4206 65.1223 12.8484 65.1223C12.2763 65.1223 11.769 65.4908 11.5921 66.0351L9.1674 73.4976H1.32105C0.748882 73.4976 0.241577 73.866 0.0647411 74.4104C-0.112095 74.9546 0.0816161 75.5511 0.544624 75.8872L6.89244 80.4993L4.46771 87.9618C4.29087 88.506 4.48458 89.1024 4.94759 89.4385C5.41042 89.7749 6.03744 89.7749 6.50044 89.4385L12.8483 84.8263L19.1961 89.4385C19.6927 89.7992 20.3903 89.7646 20.8491 89.3576C21.2381 89.0126 21.3895 88.4564 21.2286 87.9619L18.8039 80.4995L25.1517 75.8873C25.6154 75.5512 25.8091 74.9548 25.6323 74.4106ZM16.4752 78.9259C16.0121 79.2622 15.8184 79.8584 15.9953 80.4026L17.4602 84.9114L13.6247 82.1249C13.1669 81.7922 12.5296 81.7922 12.0718 82.1249L8.23664 84.9112L9.70142 80.4025C9.87826 79.8582 9.68455 79.2618 9.22154 78.9257L5.38617 76.1392H10.127C10.6992 76.1392 11.2065 75.7708 11.3833 75.2264L12.8483 70.7176L14.3132 75.2264C14.4901 75.7708 14.9974 76.1392 15.5695 76.1392H20.3103L16.4752 78.9259Z" fill="#FF0141"/>
<path d="M79.3066 33.2399C80.6711 32.142 81.5456 30.4585 81.5456 28.575C81.5456 25.2744 78.8603 22.5892 75.5599 22.5892H54.3121C54.9725 21.1492 55.7349 18.9556 56.1707 15.9063C57.1828 8.82075 55.6533 5.05973 54.1921 3.15233C52.9553 1.53795 51.2936 0.561665 49.3871 0.329282C47.7783 0.131704 46.3093 1.40946 46.2664 3.02559C46.0191 5.56633 45.1144 12.5366 43.8185 15.1287C40.4894 21.7869 32.5522 25.7566 30.1007 26.8548C29.2429 26.1176 28.1288 25.6706 26.9117 25.6706H16.1725C13.4704 25.6706 11.2721 27.8688 11.2721 30.571V57.4183C11.2721 60.1206 13.4704 62.3187 16.1725 62.3187H26.9114C28.3572 62.3187 29.6585 61.6889 30.556 60.6897C31.9501 61.5699 34.2001 62.5504 37.3074 62.5504H71.8279C75.1285 62.5504 77.8136 59.8652 77.8136 56.5647C77.8136 55.0517 77.2493 53.668 76.3201 52.613C78.3079 51.6382 79.6793 49.5934 79.6793 47.2346C79.6793 45.7216 79.115 44.3381 78.1859 43.2828C80.1736 42.3083 81.545 40.2634 81.545 37.9046C81.5456 36.0213 80.6709 34.3379 79.3066 33.2399ZM26.9114 59.6767H16.1725C14.9271 59.6767 13.9139 58.6635 13.9139 57.4181V30.5709C13.9139 29.3255 14.9271 28.3123 16.1725 28.3123H26.9114C27.5421 28.3123 28.1125 28.5728 28.5226 28.9911V58.4485C28.5226 58.6066 28.5512 58.7616 28.6054 58.9072C28.191 59.3777 27.5862 59.6767 26.9114 59.6767ZM70.0099 34.5607H75.5604C77.4043 34.5607 78.9043 36.061 78.9043 37.9046C78.9043 39.7482 77.4042 41.2485 75.5604 41.2485H70.0099C69.2804 41.2485 68.6889 41.8398 68.6889 42.5695C68.6889 43.2992 69.2804 43.8905 70.0099 43.8905H73.6943C75.5382 43.8905 77.0382 45.3908 77.0382 47.2344C77.0382 49.078 75.5381 50.5783 73.6943 50.5783H68.9972C68.2678 50.5783 67.6763 51.1696 67.6763 51.8993C67.6763 52.6289 68.2678 53.2203 68.9972 53.2203H71.8282C73.672 53.2203 75.1721 54.7206 75.1721 56.5643C75.1721 58.4081 73.672 59.9082 71.8282 59.9082H37.3078C34.5814 59.9082 32.7331 58.9949 31.7295 58.3091C31.783 58.0198 31.8123 57.7222 31.8123 57.4178V30.5709C31.8123 30.0544 31.7315 29.5568 31.5827 29.0892C34.6779 27.6687 42.6019 23.4688 46.1814 16.3101C47.9717 12.7296 48.8643 3.61182 48.9014 3.22545C48.9053 3.18362 48.9074 3.14125 48.9074 3.09924C48.9074 3.05424 48.9246 3.01592 48.9585 2.98604C49.006 2.94438 49.0517 2.94965 49.067 2.95159C49.8939 3.05249 51.0904 3.44799 52.095 4.75897C53.2483 6.26436 54.4378 9.35547 53.5554 15.5328C52.8074 20.7688 51.034 23.0594 51.0229 23.0736C50.3305 23.9198 50.954 25.2312 52.0451 25.2312H75.5602C77.4042 25.2312 78.9041 26.7315 78.9041 28.5752C78.9041 30.4192 77.404 31.9191 75.5602 31.9191H70.0098C69.2803 31.9191 68.6888 32.5104 68.6888 33.2401C68.6888 33.9698 69.2803 34.5607 70.0099 34.5607Z" fill="#FF0141"/>
</g>
<defs>
<clipPath id="clip0_20_1666">
<rect width="90" height="90" fill="white"/>
</clipPath>
</defs>
</svg>
