<svg width="90" height="90" viewBox="0 0 90 90" fill="none" xmlns="http://www.w3.org/2000/svg">
<g clip-path="url(#clip0_19_1611)">
<path d="M88.5 0H73.5C72.6716 0 72 0.671631 72 1.5V24.8789L66 30.8789V25.5C66 24.6716 65.3284 24 64.5 24H49.5C48.6716 24 48 24.6716 48 25.5V35.8228L42 32.8228V13.5C42 12.6716 41.3284 12 40.5 12H25.5C24.6716 12 24 12.6716 24 13.5V36.8789L18 42.8789V37.5C18 36.6716 17.3284 36 16.5 36H1.5C0.671631 36 0 36.6716 0 37.5V82.5C0 83.3284 0.671631 84 1.5 84H16.5C17.3284 84 18 83.3284 18 82.5V47.1211L24 41.1211V82.5C24 83.3284 24.6716 84 25.5 84H40.5C41.3284 84 42 83.3284 42 82.5V36.1772L48 39.1772V82.5C48 83.3284 48.6716 84 49.5 84H64.5C65.3284 84 66 83.3284 66 82.5V35.1211L72 29.1211V82.5C72 83.3284 72.6716 84 73.5 84H88.5C89.3284 84 90 83.3284 90 82.5V1.5C90 0.671631 89.3284 0 88.5 0ZM15 45.8789L9.76685 51.1128C9.51709 51.041 9.25928 51.0037 9 51C7.34326 51 6 52.3433 6 54C6 55.6567 7.34326 57 9 57C10.6567 57 12 55.6567 12 54C11.9963 53.7407 11.959 53.4829 11.8872 53.2332L15 50.1211V81H3V39H15V45.8789ZM39 81H27V38.1211L32.2332 32.8872C32.4829 32.959 32.7407 32.9963 33 33C33.5874 33.0007 34.1609 32.8271 34.6501 32.502L39 34.6772V81ZM39 31.3228L35.9802 29.814C35.8154 28.2524 34.4736 27.0828 32.9041 27.1311C31.3345 27.1802 30.0681 28.4312 30 30C30.0037 30.2593 30.041 30.5171 30.1128 30.7668L27 33.8789V15H39V31.3228ZM63 81H51V40.6772L54.0198 42.186C54.1846 43.7476 55.5264 44.9172 57.0959 44.8689C58.6655 44.8198 59.9319 43.5688 60 42C59.9963 41.7407 59.959 41.4829 59.8872 41.2332L63 38.1211V81ZM63 33.8789L57.7668 39.1128C57.5171 39.041 57.2593 39.0037 57 39C56.4126 38.9993 55.8391 39.1729 55.3499 39.498L51 37.3228V27H63V33.8789ZM87 81H75V26.1211L80.2332 20.8872C80.4829 20.959 80.7407 20.9963 81 21C82.6567 21 84 19.6567 84 18C84 16.3433 82.6567 15 81 15C79.3433 15 78 16.3433 78 18C78.0037 18.2593 78.041 18.5171 78.1128 18.7668L75 21.8789V3H87V81Z" fill="#FF0141"/>
<path d="M88.5 87H1.5C0.671631 87 0 87.6716 0 88.5C0 89.3284 0.671631 90 1.5 90H88.5C89.3284 90 90 89.3284 90 88.5C90 87.6716 89.3284 87 88.5 87Z" fill="#FF0141"/>
</g>
<defs>
<clipPath id="clip0_19_1611">
<rect width="90" height="90" fill="white"/>
</clipPath>
</defs>
</svg>
