<svg width="90" height="90" viewBox="0 0 90 90" fill="none" xmlns="http://www.w3.org/2000/svg">
<path d="M14.9201 89.708C14.2422 89.708 13.6929 89.1587 13.6929 88.4807V48.3723C13.6929 47.6944 14.2422 47.145 14.9201 47.145C15.5981 47.145 16.1474 47.6944 16.1474 48.3723V88.4807C16.1474 89.1587 15.5981 89.708 14.9201 89.708Z" fill="#FF0141"/>
<path d="M32.8909 52.9539C32.5344 52.9539 32.1954 52.7961 31.9617 52.5273L25.8837 45.4851C25.6909 45.263 25.5857 44.9766 25.5857 44.6844V39.2903C25.5857 38.6123 26.135 38.063 26.813 38.063C27.4909 38.063 28.0402 38.6123 28.0402 39.2903V44.2286L32.8909 49.8507L37.7415 44.2286V39.2903C37.7415 38.6123 38.2909 38.063 38.9688 38.063C39.6467 38.063 40.1961 38.6123 40.1961 39.2903V44.6844C40.1961 44.9766 40.0909 45.263 39.898 45.4851L33.8201 52.5273C33.5922 52.8019 33.2532 52.9539 32.8909 52.9539Z" fill="#FF0141"/>
<path d="M39.4188 57.4715C39.1734 57.4715 38.9279 57.3955 38.7234 57.2553L32.8967 53.2228L27.0701 57.2553C26.7896 57.4481 26.4331 57.5183 26.1 57.4423C25.7669 57.3663 25.4747 57.1559 25.3052 56.8579L19.7357 47.1391C19.3967 46.5488 19.6013 45.8007 20.1916 45.4618C20.7818 45.1228 21.5299 45.3274 21.8688 45.9176L26.7721 54.4735L32.2013 50.7157C32.6221 50.4235 33.1773 50.4235 33.598 50.7157L39.0273 54.4735L43.9305 45.9176C44.2695 45.3274 45.0175 45.1287 45.6078 45.4618C46.198 45.8007 46.3967 46.5488 46.0636 47.1391L40.4942 56.8579C40.3247 57.1559 40.0383 57.3663 39.6993 57.4423C39.6 57.4598 39.5123 57.4715 39.4188 57.4715Z" fill="#FF0141"/>
<path d="M47.2032 25.1358C46.5253 25.1358 45.976 24.5865 45.976 23.9086V18.2105C45.976 11.0222 40.1259 5.15466 32.9435 5.12544C32.9259 5.12544 32.9143 5.12544 32.8967 5.12544C29.4545 5.12544 26.1993 6.48129 23.7214 8.95337C21.1967 11.4664 19.8117 14.7975 19.8117 18.3215V23.9086C19.8117 24.5865 19.2623 25.1358 18.5844 25.1358C17.9065 25.1358 17.3571 24.5865 17.3571 23.9086V18.3215C17.3571 16.2118 17.7779 14.1547 18.6019 12.2144C19.4026 10.3384 20.5422 8.65531 21.9915 7.21181C24.9311 4.28389 28.8058 2.6709 32.8967 2.6709H32.9493C37.087 2.68843 40.9734 4.30726 43.8954 7.24103C46.8175 10.1748 48.4305 14.067 48.4305 18.2105V23.9086C48.4305 24.5865 47.8811 25.1358 47.2032 25.1358Z" fill="#FF0141"/>
<path d="M32.8909 42.4053C26.3747 42.4053 21.0682 37.1047 21.0682 30.5826V20.9923C21.0682 20.6592 21.2026 20.3436 21.4422 20.1099C21.6818 19.8761 22.0032 19.7534 22.3305 19.765C22.4416 19.7709 33.563 20.0339 38.2967 15.306C38.5364 15.0663 38.8636 14.9378 39.1967 14.9495C39.5357 14.9612 39.8513 15.1073 40.0792 15.3586L44.398 20.18C44.6026 20.4079 44.7136 20.6943 44.7136 20.9982V30.5884C44.7136 37.1047 39.413 42.4053 32.8909 42.4053ZM23.5286 22.2196V30.5826C23.5286 35.7488 27.7305 39.9508 32.8967 39.9508C38.063 39.9508 42.2649 35.7488 42.2649 30.5826V21.4657L39.074 17.9066C34.387 21.6176 26.5792 22.1553 23.5286 22.2196Z" fill="#FF0141"/>
<path d="M22.3013 32.0611H20.7935C18.0117 32.0611 15.75 29.7994 15.75 27.0176C15.75 24.2358 18.0117 21.9741 20.7935 21.9741H22.3013C22.9792 21.9741 23.5286 22.5235 23.5286 23.2014V30.8339C23.5286 31.5118 22.9792 32.0611 22.3013 32.0611ZM20.7935 24.4287C19.3675 24.4287 18.2045 25.5917 18.2045 27.0176C18.2045 28.4436 19.3675 29.6066 20.7935 29.6066H21.074V24.4287H20.7935Z" fill="#FF0141"/>
<path d="M44.9942 32.0611H43.4864C42.8084 32.0611 42.2591 31.5118 42.2591 30.8339V23.2014C42.2591 22.5235 42.8084 21.9741 43.4864 21.9741H44.9942C47.776 21.9741 50.0377 24.2358 50.0377 27.0176C50.0377 29.7994 47.776 32.0611 44.9942 32.0611ZM44.7136 29.6066H44.9942C46.4201 29.6066 47.5831 28.4436 47.5831 27.0176C47.5831 25.5917 46.4201 24.4287 44.9942 24.4287H44.7136V29.6066Z" fill="#FF0141"/>
<path d="M58.5 89.7079H7.28765C5.50518 89.7079 4.04999 88.2586 4.04999 86.4703V60.2125C4.04999 57.3547 4.94414 54.6313 6.64479 52.3287C8.3396 50.032 10.6773 48.3664 13.4123 47.5248L26.5091 43.4748C27.1578 43.2761 27.8415 43.6385 28.0461 44.2872C28.2448 44.9359 27.8825 45.6196 27.2338 45.8242L14.137 49.8742C9.57271 51.2826 6.51038 55.4378 6.51038 60.2125V86.4703C6.51038 86.9027 6.86103 87.2534 7.29349 87.2534H58.5C58.9325 87.2534 59.2831 86.9027 59.2831 86.4703V60.2125C59.2831 55.4378 56.2149 51.2826 51.6565 49.8742L38.5597 45.8242C37.911 45.6255 37.5487 44.9359 37.7474 44.2872C37.9461 43.6385 38.6357 43.2761 39.2844 43.4748L52.3812 47.5248C55.1104 48.3664 57.448 50.032 59.1487 52.3287C60.8435 54.6255 61.7435 57.3547 61.7435 60.2125V86.4703C61.7376 88.2586 60.2883 89.7079 58.5 89.7079Z" fill="#FF0141"/>
<path d="M33.376 89.7081C33.2123 89.7081 33.0487 89.673 32.8909 89.6087C32.3591 89.8366 31.7279 89.6672 31.389 89.1704L27.2338 83.0691L26.2344 81.6022C26.0591 81.3392 25.989 81.0237 26.0357 80.7081L26.0942 80.3516L29.5598 57.9626C29.6533 57.3665 30.1675 56.9224 30.7753 56.9224H35.0065C35.6143 56.9224 36.1286 57.3665 36.2221 57.9626L39.6877 80.3516L39.7461 80.7081C39.7578 80.7724 39.7637 80.8425 39.7637 80.9126C39.7637 81.1581 39.6877 81.4035 39.5533 81.6022L34.3987 89.1704C34.1591 89.5211 33.7734 89.7081 33.376 89.7081ZM28.5429 80.6263L32.8909 87.0139L37.239 80.6263L33.9546 59.3769H31.8331L28.5429 80.6263Z" fill="#FF0141"/>
<path d="M35.0065 59.3768H30.7812C30.2728 59.3768 29.8111 59.0613 29.6299 58.582L28.1455 54.6431C27.9059 54.0061 28.2273 53.2989 28.8643 53.0593C29.5013 52.8197 30.2085 53.1411 30.4481 53.7781L31.6286 56.9223H34.1533L35.3338 53.7781C35.5734 53.1411 36.2806 52.8255 36.9176 53.0593C37.5546 53.2989 37.8702 54.0061 37.6364 54.6431L36.152 58.582C35.9767 59.0613 35.515 59.3768 35.0065 59.3768Z" fill="#FF0141"/>
<path d="M50.9727 89.708C50.2948 89.708 49.7454 89.1587 49.7454 88.4807V48.3723C49.7454 47.6944 50.2948 47.145 50.9727 47.145C51.6506 47.145 52.2 47.6944 52.2 48.3723V88.4807C52.2 89.1587 51.6506 89.708 50.9727 89.708Z" fill="#FF0141"/>
<path d="M64.8759 30.4364C64.4376 30.4364 64.0344 30.2026 63.8123 29.8228L59.9259 23.0903H57.9272C55.4727 23.0903 53.474 21.0916 53.474 18.637V4.74548C53.474 2.29094 55.4727 0.292236 57.9272 0.292236H81.4967C83.9513 0.292236 85.95 2.29094 85.95 4.74548V18.6312C85.95 21.0857 83.9513 23.0844 81.4967 23.0844H69.8259L65.9396 29.8169C65.7175 30.2026 65.3143 30.4364 64.8759 30.4364ZM57.9272 2.74678C56.8227 2.74678 55.9285 3.64678 55.9285 4.74548V18.6312C55.9285 19.7357 56.8285 20.6299 57.9272 20.6299H60.6331C61.0714 20.6299 61.4746 20.8637 61.6967 21.2435L64.8759 26.7487L68.0552 21.2435C68.2772 20.8637 68.6805 20.6299 69.1188 20.6299H81.4967C82.6013 20.6299 83.4954 19.7299 83.4954 18.6312V4.74548C83.4954 3.64094 82.5954 2.74678 81.4967 2.74678H57.9272Z" fill="#FF0141"/>
<path d="M69.9603 18.4968C69.2824 18.4968 68.7331 17.9475 68.7331 17.2696V11.7877L67.7629 12.2494C67.1493 12.5416 66.4188 12.2787 66.1266 11.665C65.8344 11.0514 66.0974 10.3209 66.711 10.0287L69.4344 8.7371C69.8142 8.55593 70.2584 8.58515 70.6149 8.80723C70.9714 9.0293 71.1876 9.42086 71.1876 9.84164V17.2696C71.1876 17.9475 70.6383 18.4968 69.9603 18.4968Z" fill="#FF0141"/>
<path d="M72.187 18.4968H67.7337C67.0558 18.4968 66.5065 17.9474 66.5065 17.2695C66.5065 16.5916 67.0558 16.0422 67.7337 16.0422H72.187C72.8649 16.0422 73.4143 16.5916 73.4143 17.2695C73.4143 17.9474 72.8649 18.4968 72.187 18.4968Z" fill="#FF0141"/>
<path d="M69.75 7.69686C70.5956 7.69686 71.2811 7.01133 71.2811 6.16569C71.2811 5.32005 70.5956 4.63452 69.75 4.63452C68.9043 4.63452 68.2188 5.32005 68.2188 6.16569C68.2188 7.01133 68.9043 7.69686 69.75 7.69686Z" fill="#FF0141"/>
</svg>
