<svg width="225" height="51" viewBox="0 0 225 51" fill="none" xmlns="http://www.w3.org/2000/svg">
<path d="M94.5622 29.863H104.616V51H94.5622V29.863ZM87 22.0539H112.178V28.3579H87V22.0539Z" fill="url(#paint0_linear_27_1873)"/>
<path d="M117.38 34.8582H136.679V40.0716H117.38V34.8582Z" fill="url(#paint1_linear_27_1873)"/>
<path d="M143.323 51V22.0539H152.984V51H143.323ZM154.514 51V45.2195H159.3V41.5549H168.065V51H154.514Z" fill="url(#paint2_linear_27_1873)"/>
<path d="M186.052 51V33.6149H172.305V30.7355L175.212 27.8344H189.702L195.494 33.6149V51H186.052ZM184.522 37.5194V41.5331H179.539V45.5903H184.522V48.1425L181.637 51H174.25L170.36 47.1827V41.3804L174.25 37.5194H184.522Z" fill="url(#paint3_linear_27_1873)"/>
<path d="M209.526 19V51H199.865V19H209.526ZM215.383 33.6149H211.056V30.6919L213.897 27.8344H219.186L225 33.6149V45.2195L219.186 51H211.056V45.5903H215.383V33.6149Z" fill="url(#paint4_linear_27_1873)"/>
<g clip-path="url(#clip0_27_1873)">
<path d="M49.0466 51L55.9219 42.2499V25.9353L49.0466 34.6854V51Z" fill="url(#paint5_linear_27_1873)"/>
<path d="M20.7917 51L27.9685 42.2499V12.9977L20.7917 21.4476V51Z" fill="url(#paint6_linear_27_1873)"/>
<path d="M77 35.646V51H55.9219V25.8902L77 35.646Z" fill="url(#paint7_linear_27_1873)"/>
<path d="M49.0466 22.7084V51H27.9685V12.9376L49.0466 22.7084Z" fill="url(#paint8_linear_27_1873)"/>
<path d="M21.0781 9.75574V51H0V0L21.0781 9.75574Z" fill="url(#paint9_linear_27_1873)"/>
<path d="M76.3668 36.2313H76.5175V50.5047H76.3668V36.2313Z" fill="#3D4244"/>
<path d="M56.2837 26.8658H56.4345V50.5197H56.2837V26.8658Z" fill="#3D4244"/>
<path d="M48.4737 23.2637H48.6244V50.5047H48.4737V23.2637Z" fill="#3D4244"/>
<path d="M28.466 13.9882H28.6168V50.5197H28.466V13.9882Z" fill="#3D4244"/>
<path d="M20.3243 10.2961H20.475V50.5047H20.3243V10.2961Z" fill="#3D4244"/>
<path d="M0.512633 1.11066H0.663406V50.5047H0.512633V1.11066Z" fill="#3D4244"/>
</g>
<defs>
<linearGradient id="paint0_linear_27_1873" x1="83" y1="12.5" x2="262.5" y2="64.5" gradientUnits="userSpaceOnUse">
<stop stop-color="#FF0141"/>
<stop offset="0.391512" stop-color="#8639FB"/>
<stop offset="1" stop-color="#3962FC"/>
</linearGradient>
<linearGradient id="paint1_linear_27_1873" x1="83" y1="12.5" x2="262.5" y2="64.5" gradientUnits="userSpaceOnUse">
<stop stop-color="#FF0141"/>
<stop offset="0.391512" stop-color="#8639FB"/>
<stop offset="1" stop-color="#3962FC"/>
</linearGradient>
<linearGradient id="paint2_linear_27_1873" x1="83" y1="12.5" x2="262.5" y2="64.5" gradientUnits="userSpaceOnUse">
<stop stop-color="#FF0141"/>
<stop offset="0.391512" stop-color="#8639FB"/>
<stop offset="1" stop-color="#3962FC"/>
</linearGradient>
<linearGradient id="paint3_linear_27_1873" x1="83" y1="12.5" x2="262.5" y2="64.5" gradientUnits="userSpaceOnUse">
<stop stop-color="#FF0141"/>
<stop offset="0.391512" stop-color="#8639FB"/>
<stop offset="1" stop-color="#3962FC"/>
</linearGradient>
<linearGradient id="paint4_linear_27_1873" x1="83" y1="12.5" x2="262.5" y2="64.5" gradientUnits="userSpaceOnUse">
<stop stop-color="#FF0141"/>
<stop offset="0.391512" stop-color="#8639FB"/>
<stop offset="1" stop-color="#3962FC"/>
</linearGradient>
<linearGradient id="paint5_linear_27_1873" x1="55.9221" y1="38.4671" x2="49.0426" y2="38.4671" gradientUnits="userSpaceOnUse">
<stop stop-color="#07151F"/>
<stop offset="0.3649" stop-color="#161E27"/>
<stop offset="1" stop-color="#2C333D"/>
</linearGradient>
<linearGradient id="paint6_linear_27_1873" x1="27.9647" y1="31.9977" x2="20.7924" y2="31.9977" gradientUnits="userSpaceOnUse">
<stop stop-color="#07151F"/>
<stop offset="0.3649" stop-color="#161E27"/>
<stop offset="1" stop-color="#2C333D"/>
</linearGradient>
<linearGradient id="paint7_linear_27_1873" x1="66.4611" y1="50.9981" x2="66.4611" y2="25.8867" gradientUnits="userSpaceOnUse">
<stop stop-color="#12112A"/>
<stop offset="1" stop-color="white"/>
</linearGradient>
<linearGradient id="paint8_linear_27_1873" x1="38.5077" y1="50.9972" x2="38.5077" y2="12.9323" gradientUnits="userSpaceOnUse">
<stop stop-color="#12112A"/>
<stop offset="1" stop-color="white"/>
</linearGradient>
<linearGradient id="paint9_linear_27_1873" x1="10.5392" y1="50.9962" x2="10.5392" y2="-0.00707111" gradientUnits="userSpaceOnUse">
<stop stop-color="#12112A"/>
<stop offset="1" stop-color="white"/>
</linearGradient>
<clipPath id="clip0_27_1873">
<rect width="77" height="51" fill="white" transform="matrix(-1 0 0 1 77 0)"/>
</clipPath>
</defs>
</svg>
